<svg version="1.1" xmlns="http://www.w3.org/2000/svg"
	 viewBox="0 0 100 100" >
<style type="text/css">
	.st0{fill:#FFFFFF;stroke:#000000;stroke-width:1.5;stroke-linejoin:round;stroke-miterlimit:10;}
	.st1{fill:none;stroke:#000000;stroke-width:1.5;stroke-linecap:round;stroke-miterlimit:10;}
</style>
<g>
	<g>
		<path class="st0" d="M96.2,61.4l0.5-7.9l0,0l0-0.2l0-0.4c0-0.5-0.1-0.9-0.3-1.3l-2.5-11.1l2.6,1.8l0.5,6c0.1,1.4,1.4,2.5,2.8,2.4
			c1.4-0.1,2.5-1.4,2.4-2.8l-0.6-7.2c-0.1-0.8-0.5-1.5-1.1-1.9l-9.5-6.6c-0.7-0.5-1.6-0.6-2.4-0.3l-6.2,2.5
			c-0.7,0.3-1.3,0.9-1.5,1.7l-2.2,7.4l-5.3,3.5c-1.2,0.8-1.5,2.4-0.8,3.6c0.5,0.8,1.3,1.2,2.2,1.2c0.5,0,1-0.1,1.4-0.4l6.1-4
			c0.5-0.3,0.9-0.8,1.1-1.4l0.8-2.6l2.6,9.4l-3.6,6.5c-0.1,0.2-0.2,0.5-0.3,0.8l-3.5,14.1c-0.2,1.4,0.7,2.7,2.1,3c0.2,0,0.3,0,0.4,0
			c1.2,0,2.3-0.9,2.5-2.1l3.5-13.7l3-5.4c0,0,0.7-0.4,0.6,0.3c0,0.7-0.4,6.2-0.4,6.2c0,0.7,0.2,1.3,0.6,1.8l8.6,9.8
			c0.9,1.1,2.5,1.2,3.6,0.3c1.1-0.9,1.2-2.5,0.3-3.6L96.2,61.4z"/>
		<circle class="st0" cx="83.4" cy="26.7" r="5.4"/>
	</g>
	<path class="st1" d="M59.4,34.7c-2.3,4.5-3.6,9.6-3.6,15.1c0,5.5,1.4,10.7,3.8,15.3"/>
	<path class="st1" d="M118,65.1c2.4-4.6,3.8-9.8,3.8-15.3c0-5.4-1.3-10.6-3.6-15.1"/>
	<path class="st1" d="M110.8,65.1c3-4.3,4.8-9.6,4.8-15.3c0-5.6-1.7-10.8-4.6-15.1"/>
	<path class="st1" d="M66.6,34.7C63.7,39,62,44.2,62,49.8c0,5.7,1.8,11,4.8,15.3"/>
</g>

</svg>
