<?xml version="1.0" encoding="UTF-8" standalone="no"?>
<!-- Created with Inkscape (http://www.inkscape.org/) -->

<svg
   xmlns:dc="http://purl.org/dc/elements/1.1/"
   xmlns:cc="http://creativecommons.org/ns#"
   xmlns:rdf="http://www.w3.org/1999/02/22-rdf-syntax-ns#"
   xmlns:svg="http://www.w3.org/2000/svg"
   xmlns="http://www.w3.org/2000/svg"
   xmlns:sodipodi="http://sodipodi.sourceforge.net/DTD/sodipodi-0.dtd"
   xmlns:inkscape="http://www.inkscape.org/namespaces/inkscape"
   width="210mm"
   height="297mm"
   viewBox="0 0 210 297"
   version="1.1"
   id="svg8"
   inkscape:version="0.92.3 (2405546, 2018-03-11)"
   sodipodi:docname="presence.svg">
  <defs
     id="defs2" />
  <sodipodi:namedview
     id="base"
     pagecolor="#ffffff"
     bordercolor="#666666"
     borderopacity="1.0"
     inkscape:pageopacity="0.0"
     inkscape:pageshadow="2"
     inkscape:zoom="11.2"
     inkscape:cx="384.90782"
     inkscape:cy="718.36749"
     inkscape:document-units="mm"
     inkscape:current-layer="layer1"
     showgrid="false"
     inkscape:window-width="2552"
     inkscape:window-height="1529"
     inkscape:window-x="0"
     inkscape:window-y="0"
     inkscape:window-maximized="1" />
  <metadata
     id="metadata5">
    <rdf:RDF>
      <cc:Work
         rdf:about="">
        <dc:format>image/svg+xml</dc:format>
        <dc:type
           rdf:resource="http://purl.org/dc/dcmitype/StillImage" />
        <dc:title></dc:title>
      </cc:Work>
    </rdf:RDF>
  </metadata>
  <g
     inkscape:label="Layer 1"
     inkscape:groupmode="layer"
     id="layer1">
    <g
       id="g895"
       transform="matrix(-0.26458333,0,0,0.26458333,119.87893,95.737124)">
      <g
         id="g885">
        <path
           id="path881"
           d="m 96.2,61.4 0.5,-7.9 v 0 -0.2 -0.4 c 0,-0.5 -0.1,-0.9 -0.3,-1.3 l -2.5,-11.1 2.6,1.8 0.5,6 c 0.1,1.4 1.4,2.5 2.8,2.4 1.4,-0.1 2.5,-1.4 2.4,-2.8 l -0.6,-7.2 c -0.1,-0.8 -0.5,-1.5 -1.1,-1.9 L 91,32.2 c -0.7,-0.5 -1.6,-0.6 -2.4,-0.3 l -6.2,2.5 c -0.7,0.3 -1.3,0.9 -1.5,1.7 l -2.2,7.4 -5.3,3.5 c -1.2,0.8 -1.5,2.4 -0.8,3.6 0.5,0.8 1.3,1.2 2.2,1.2 0.5,0 1,-0.1 1.4,-0.4 l 6.1,-4 c 0.5,-0.3 0.9,-0.8 1.1,-1.4 l 0.8,-2.6 2.6,9.4 -3.6,6.5 c -0.1,0.2 -0.2,0.5 -0.3,0.8 l -3.5,14.1 c -0.2,1.4 0.7,2.7 2.1,3 0.2,0 0.3,0 0.4,0 1.2,0 2.3,-0.9 2.5,-2.1 l 3.5,-13.7 3,-5.4 c 0,0 0.7,-0.4 0.6,0.3 0,0.7 -0.4,6.2 -0.4,6.2 0,0.7 0.2,1.3 0.6,1.8 l 8.6,9.8 c 0.9,1.1 2.5,1.2 3.6,0.3 1.1,-0.9 1.2,-2.5 0.3,-3.6 z"
           class="st0"
           inkscape:connector-curvature="0"
           style="fill:#ffffff;stroke:#000000;stroke-width:1.5;stroke-linejoin:round;stroke-miterlimit:10" />
        <circle
           id="circle883"
           r="5.4000001"
           cy="26.700001"
           cx="83.400002"
           class="st0"
           style="fill:#ffffff;stroke:#000000;stroke-width:1.5;stroke-linejoin:round;stroke-miterlimit:10" />
      </g>
      <path
         id="path887"
         d="m 59.4,34.7 c -2.3,4.5 -3.6,9.6 -3.6,15.1 0,5.5 1.4,10.7 3.8,15.3"
         class="st1"
         inkscape:connector-curvature="0"
         style="fill:none;stroke:#000000;stroke-width:1.5;stroke-linecap:round;stroke-miterlimit:10" />
      <path
         id="path889"
         d="m 118,65.1 c 2.4,-4.6 3.8,-9.8 3.8,-15.3 0,-5.4 -1.3,-10.6 -3.6,-15.1"
         class="st1"
         inkscape:connector-curvature="0"
         style="fill:none;stroke:#000000;stroke-width:1.5;stroke-linecap:round;stroke-miterlimit:10" />
      <path
         id="path891"
         d="m 110.8,65.1 c 3,-4.3 4.8,-9.6 4.8,-15.3 0,-5.6 -1.7,-10.8 -4.6,-15.1"
         class="st1"
         inkscape:connector-curvature="0"
         style="fill:none;stroke:#000000;stroke-width:1.5;stroke-linecap:round;stroke-miterlimit:10" />
      <path
         id="path893"
         d="M 66.6,34.7 C 63.7,39 62,44.2 62,49.8 c 0,5.7 1.8,11 4.8,15.3"
         class="st1"
         inkscape:connector-curvature="0"
         style="fill:none;stroke:#000000;stroke-width:1.5;stroke-linecap:round;stroke-miterlimit:10" />
    </g>
  </g>
  <style
     id="style879"
     type="text/css">
	.st0{fill:#FFFFFF;stroke:#000000;stroke-width:1.5;stroke-linejoin:round;stroke-miterlimit:10;}
	.st1{fill:none;stroke:#000000;stroke-width:1.5;stroke-linecap:round;stroke-miterlimit:10;}
</style>
</svg>
